:version 1.10
:name ASF
:units
  mass 1
  length 1
  angle deg
:documentation
  ASF file generated by Kaydara
:root
  axis xyz
  order  tx ty tz rx ry rz
  position 0 0 0
  orientation 0 0 0
:bonedata
  begin
    id 1
    name LeftUpLegDummy
    direction 1 -2.30186e-007 -8.31532e-007
    length 2.93387
    axis 0 0 0 xyz
  end
  begin
    id 2
    name LeftUpLeg
    direction -1.82929e-007 -1 -1.48925e-009
    length 17.3336
    axis -3.48766 0.00143442 -0.000521554 xyz
    dof rx ry rz
  end
  begin
    id 3
    name LeftLeg
    direction -1.82929e-007 -1 -5.23717e-011
    length 14.9995
    axis 3.68178 -0.00654042 -0.000282425 xyz
    dof rx ry rz
  end
  begin
    id 4
    name LeftFoot
    direction 8.31532e-007 -4.54534e-011 1
    length 6.74421
    axis 1.87234e-006 4.66016e-005 -5.96866e-006 xyz
    dof rx ry rz
  end
  begin
    id 5
    name LeftToes
    direction 0.00818058 -0.00485161 0.999955
    length 3.85048
    axis 1.06247e-005 4.65869e-005 -5.96999e-006 xyz
    dof rx ry rz
  end
  begin
    id 6
    name SpineDummy
    direction -5.8607e-008 0.943407 -0.331637
    length 5.93572
    axis 0 0 0 xyz
  end
  begin
    id 7
    name Spine
    direction -1.04988e-007 0.999988 0.00495137
    length 10.1015
    axis -0.001389 0.000121417 6.61666e-006 xyz
    dof rx ry rz
  end
  begin
    id 8
    name Spine1
    direction 0 0 0
    length 0
    axis -0.001389 0.00012144 6.56766e-006 xyz
    dof rx ry rz
  end
  begin
    id 9
    name RightShoulderDummy
    direction -0.98348 0.17941 -0.0240696
    length 3.59882
    axis -0.001389 0.00012144 6.56766e-006 xyz
  end
  begin
    id 10
    name RightShoulder
    direction -0.978693 0.204882 0.0135597
    length 2.70001
    axis 0.215806 0.000203631 -0.00679732 xyz
    dof rx ry rz
  end
  begin
    id 11
    name RightArm
    direction -1 3.85509e-006 8.31394e-007
    length 10.2459
    axis -23.2009 -0.134239 -0.964098 xyz
    dof rx ry rz
  end
  begin
    id 12
    name RightForeArm
    direction -1 3.85569e-006 8.3129e-007
    length 8.16799
    axis -9.92322 0.0658061 0.17887 xyz
    dof rx ry rz
  end
  begin
    id 13
    name RightHand
    direction -0.992843 -0.0414604 0.112003
    length 5.28593
    axis -0.00960638 0.00330669 -0.185225 xyz
    dof rx ry rz
  end
  begin
    id 14
    name LeftShoulder1Dummy
    direction 0.983523 0.179172 -0.0240748
    length 3.59866
    axis -0.001389 0.00012144 6.56766e-006 xyz
  end
  begin
    id 15
    name LeftShoulder1
    direction 0.978627 0.205195 0.0135605
    length 2.70019
    axis -0.001389 0.00012144 6.57583e-006 xyz
    dof rx ry rz
  end
  begin
    id 16
    name LeftArm
    direction 1 3.51895e-006 -8.60188e-007
    length 10.2459
    axis -23.1894 0.134785 0.967513 xyz
    dof rx ry rz
  end
  begin
    id 17
    name LeftForeArm
    direction 1 3.51921e-006 -7.32029e-007
    length 8.16799
    axis -9.91835 -0.0656957 -0.177789 xyz
    dof rx ry rz
  end
  begin
    id 18
    name LeftHand
    direction 0.992938 -0.0411636 0.11126
    length 5.32135
    axis -0.00960237 -0.00340661 0.185177 xyz
    dof rx ry rz
  end
  begin
    id 19
    name HEadDummy
    direction 1.01974e-006 0.999861 -0.016675
    length 2.99946
    axis -0.001389 0.00012144 6.56766e-006 xyz
  end
  begin
    id 20
    name HEad
    direction -0.0222689 0.980941 0.193023
    length 5.12695
    axis -0.001389 0.00012144 6.56766e-006 xyz
    dof rx ry rz
  end
  begin
    id 21
    name RightUpLegDummy
    direction -1 2.30186e-007 8.31532e-007
    length 2.93387
    axis 0 0 0 xyz
  end
  begin
    id 22
    name RightUpLeg
    direction -1.82966e-007 -1 1.56832e-007
    length 17.3336
    axis -3.4909 -0.000906625 0.00028951 xyz
    dof rx ry rz
  end
  begin
    id 23
    name RightLeg
    direction -1.82786e-007 -1 -1.80317e-007
    length 14.9995
    axis 3.68513 0.0193739 -0.131021 xyz
    dof rx ry rz
  end
  begin
    id 24
    name RightFoot
    direction 8.31721e-007 -4.63324e-011 1
    length 6.74421
    axis 4.81691e-005 -0.120479 -0.188785 xyz
    dof rx ry rz
  end
  begin
    id 25
    name RightToes
    direction 0.00124746 -0.014064 0.9999
    length 3.85082
    axis 0.000481921 0.542163 -0.142575 xyz
    dof rx ry rz
  end
:hierarchy
  begin
    root LeftUpLegDummy SpineDummy RightUpLegDummy
    LeftUpLegDummy LeftUpLeg
    LeftUpLeg LeftLeg
    LeftLeg LeftFoot
    LeftFoot LeftToes
    SpineDummy Spine
    Spine Spine1
    Spine1 RightShoulderDummy LeftShoulder1Dummy HEadDummy
    RightShoulderDummy RightShoulder
    RightShoulder RightArm
    RightArm RightForeArm
    RightForeArm RightHand
    LeftShoulder1Dummy LeftShoulder1
    LeftShoulder1 LeftArm
    LeftArm LeftForeArm
    LeftForeArm LeftHand
    HEadDummy HEad
    RightUpLegDummy RightUpLeg
    RightUpLeg RightLeg
    RightLeg RightFoot
    RightFoot RightToes
  end

:SAMPLES-PER-SECOND 30
:FULLY-SPECIFIED
:DEGREES
115
root  23.692 34.6131 29.1041 8.66782 14.9878 -1.15916
LeftUpLeg  -29.4088 4.35849 7.78274
LeftLeg  23.1089 4.52438 1.59087
LeftFoot  2.99038 -0.00538382 0.206252
LeftToes  -16.4059 2.48695e-006 -1.03773e-007
Spine  5.95807 3.0671 1.80091
Spine1  11.8139 5.71775 4.24854
RightShoulder  0.00721725 5.01832 6.0461
RightArm  -39.5089 -24.2072 63.681
RightForeArm  20.6792 29.7858 5.7895
RightHand  0.425045 -5.01057 -9.3093
LeftShoulder1  0.0133331 0.914076 -6.42817
LeftArm  -88.6772 42.7528 -74.7435
LeftForeArm  -7.31131 -21.8095 -4.01467
LeftHand  3.49172 8.97433 42.0532
HEad  21.983 -4.06684 -2.54287
RightUpLeg  -11.4351 -13.3526 1.99422
RightLeg  4.53887 11.433 0.172956
RightFoot  6.75507 -0.0556546 1.32041
RightToes  -33.8019 -0.170959 -0.277503
116
root  24.0198 34.5489 29.9378 8.62443 15.6527 -2.62122
LeftUpLeg  -31.1498 7.29552 6.79485
LeftLeg  15.4757 3.94975 0.822198
LeftFoot  3.2625 -0.0041049 0.198135
LeftToes  -15.4923 2.48695e-006 -1.03773e-007
Spine  5.80057 3.14521 2.11036
Spine1  11.5513 5.87618 4.82933
RightShoulder  0.00971924 5.27559 6.39226
RightArm  -41.5103 -24.6895 62.5192
RightForeArm  22.2965 24.1182 4.52332
RightHand  0.435851 -5.39723 -8.84628
LeftShoulder1  0.011302 1.66713 -6.52848
LeftArm  -81.0265 40.9476 -78.5766
LeftForeArm  -6.12852 -19.808 -3.61291
LeftHand  3.30068 10.3505 34.9011
HEad  22.0822 -3.08329 -2.67739
RightUpLeg  -9.96326 -11.1556 2.75214
RightLeg  4.26643 8.71967 0.0907145
RightFoot  5.64874 -0.0223761 0.831002
RightToes  -34.8272 -0.178535 -0.284077
117
root  24.3581 34.4359 30.8318 8.22612 16.4337 -4.47599
LeftUpLeg  -32.6023 11.6464 4.85085
LeftLeg  8.68099 3.3121 0.288562
LeftFoot  3.1295 -0.00202698 0.158793
LeftToes  -15.9739 2.48695e-006 -1.03773e-007
Spine  5.58701 3.28395 2.39668
Spine1  11.1779 6.16198 5.36033
RightShoulder  0.0132062 5.68977 6.76905
RightArm  -44.1244 -25.0457 61.6379
RightForeArm  24.4957 17.7456 3.23091
RightHand  0.449267 -6.08542 -8.05808
LeftShoulder1  0.00948979 2.51069 -6.28005
LeftArm  -72.0533 38.9557 -81.826
LeftForeArm  0.873444 -18.2572 -3.31718
LeftHand  2.5376 11.09 25.3181
HEad  22.3525 -2.38323 -2.35369
RightUpLeg  -8.50234 -9.72049 4.02198
RightLeg  4.67636 6.67236 0.117208
RightFoot  4.04073 -0.00243942 0.446621
RightToes  -35.3211 -0.182226 -0.287196
118
root  24.735 34.2669 31.7724 7.83124 17.0786 -6.25544
LeftUpLeg  -34.3962 17.2763 1.52867
LeftLeg  3.84111 3.59389 0.00954647
LeftFoot  3.09649 -0.00360633 0.173555
LeftToes  -18.9416 2.48695e-006 -1.03773e-007
Spine  5.32141 3.37362 2.61428
Spine1  10.6935 6.36553 5.72219
RightShoulder  0.0208589 6.21447 6.85227
RightArm  -47.2297 -25.4265 61.4036
RightForeArm  27.0854 12.6945 2.2741
RightHand  0.504058 -7.20439 -7.61704
LeftShoulder1  0.00796218 3.44291 -6.52037
LeftArm  -60.9744 36.8248 -83.3265
LeftForeArm  14.2649 -17.0883 -3.10126
LeftHand  1.13412 8.82341 14.2396
HEad  22.6684 -1.43962 -2.18185
RightUpLeg  -7.76966 -10.4254 5.30397
RightLeg  6.81905 6.86098 0.377056
RightFoot  1.40908 0.00281315 0.148709
RightToes  -35.3246 -0.183416 -0.288202
119
root  25.1607 34.0754 32.7574 7.48421 17.4643 -7.65193
LeftUpLeg  -35.8563 22.8886 -2.23927
LeftLeg  0.779758 5.47878 -0.277402
LeftFoot  1.83496 -0.00258152 0.161191
LeftToes  -16.631 2.48695e-006 -1.03773e-007
Spine  5.00625 3.47163 2.64028
Spine1  10.1055 6.60494 5.71139
RightShoulder  0.0297972 6.83748 6.81996
RightArm  -49.9907 -26.2766 61.923
RightForeArm  29.16 10.1305 1.80404
RightHand  0.598055 -8.23629 -7.91572
LeftShoulder1  0.00678481 4.34528 -7.02848
LeftArm  -48.6079 34.3977 -82.9843
LeftForeArm  26.1853 -16.7044 -3.02782
LeftHand  0.0941387 2.1566 4.61353
HEad  23.0507 -0.0179532 -2.25564
RightUpLeg  -7.30134 -11.6857 6.06531
RightLeg  9.88361 7.83587 0.850948
RightFoot  -1.53434 -0.00811713 -0.22874
RightToes  -35.6887 -0.184991 -0.289496
120
root  25.6246 33.8819 33.7914 6.98782 17.7548 -8.78078
LeftUpLeg  -36.2876 26.1257 -4.26611
LeftLeg  1.07492 11.5804 -0.523781
LeftFoot  0.892296 -0.00135228 0.173652
LeftToes  -12.9869 2.48695e-006 -1.03773e-007
Spine  4.68906 3.52651 2.50282
Spine1  9.49471 6.75833 5.37254
RightShoulder  0.0325809 7.20999 6.79009
RightArm  -51.363 -27.1157 63.0308
RightForeArm  29.8785 9.03574 1.60589
RightHand  0.659091 -8.87652 -8.10018
LeftShoulder1  0.00571151 4.63355 -7.5007
LeftArm  -40.2564 32.0059 -81.941
LeftForeArm  32.3197 -18.0745 -3.28972
LeftHand  0.0175577 -2.43936 -1.19802
HEad  23.5805 2.15052 -2.34725
RightUpLeg  -6.43409 -11.7893 6.41391
RightLeg  12.7978 7.74612 1.2408
RightFoot  -4.16378 -0.0348593 -0.581468
RightToes  -36.3789 -0.190222 -0.293767
121
root  26.1198 33.7327 34.8582 6.41484 18.2509 -8.7808
LeftUpLeg  -33.5406 25.8266 -3.99462
LeftLeg  0.753064 19.0028 -0.954462
LeftFoot  2.64204 -0.0208537 0.904288
LeftToes  -7.00098 2.48695e-006 -1.03773e-007
Spine  4.47463 3.37208 1.99167
Spine1  9.0609 6.52806 4.28388
RightShoulder  0.0222405 7.07565 6.55888
RightArm  -52.0323 -27.4604 65.1145
RightForeArm  30.128 9.26598 1.64722
RightHand  0.629531 -8.69118 -7.8941
LeftShoulder1  0.00456019 5.20126 -7.59866
LeftArm  -34.7491 28.7169 -80.5014
LeftForeArm  31.4285 -18.7411 -3.42085
LeftHand  0.02401 -1.72684 -1.97097
HEad  24.088 4.78955 -2.59914
RightUpLeg  -5.10173 -10.9064 5.68869
RightLeg  15.6833 6.44591 1.36801
RightFoot  -6.4729 -0.0631726 -0.739669
RightToes  -37.8026 -0.201171 -0.302376
122
root  26.7023 33.6022 35.9486 6.19251 18.4614 -8.00985
LeftUpLeg  -31.7373 23.6362 -2.75737
LeftLeg  2.28476 24.3881 -0.577199
LeftFoot  6.78282 -0.181331 3.05916
LeftToes  -4.71698 2.48695e-006 -1.03773e-007
Spine  4.20991 3.2706 1.46038
Spine1  8.53702 6.1925 2.52791
RightShoulder  0.0037916 6.9825 6.48357
RightArm  -51.7811 -27.9177 67.6914
RightForeArm  29.178 12.0219 2.14918
RightHand  0.559792 -8.22536 -7.3976
LeftShoulder1  0.00349258 5.16946 -7.75566
LeftArm  -31.3387 25.9428 -78.6481
LeftForeArm  28.458 -19.6585 -3.60391
LeftHand  0.00286901 0.441147 0.369343
HEad  24.5178 7.9547 -2.7439
RightUpLeg  -4.32412 -10.0732 4.16211
RightLeg  19.6431 5.47661 1.5628
RightFoot  -8.38736 -0.0866263 -0.803888
RightToes  -40.65 -0.223696 -0.318765
123
root  27.2546 33.6393 36.9069 6.3822 19.6513 -6.36586
LeftUpLeg  -28.8275 21.5401 -2.94471
LeftLeg  0.228756 23.4275 -1.37432
LeftFoot  16.4965 -1.02811 7.08342
LeftToes  -5.64501 2.48695e-006 -1.03773e-007
Spine  4.05931 2.53435 0.121425
Spine1  8.13944 5.04799 0.365418
RightShoulder  0.000711309 6.66723 6.65596
RightArm  -50.6815 -27.6284 70.9771
RightForeArm  27.3211 16.4338 2.97695
RightHand  0.483773 -7.60526 -6.89286
LeftShoulder1  0.00267041 5.46659 -7.77743
LeftArm  -30.4159 22.5449 -76.3152
LeftForeArm  26.2439 -20.0831 -3.68948
LeftHand  0.0401746 1.53299 2.6204
HEad  24.8583 11.3087 -2.85166
RightUpLeg  -4.55018 -9.92468 2.03588
RightLeg  24.7632 4.30528 1.65361
RightFoot  -8.51304 -0.0768298 -0.654758
RightToes  -45.7887 -0.266298 -0.345433
